<svg viewBox="0 0 64 64" xmlns="http://www.w3.org/2000/svg">
  <defs>
    <linearGradient id="gv" x1="0" y1="0" x2="1" y2="1">
      <stop offset="0" stop-color="#F6A83C"/>
      <stop offset=".5" stop-color="#FF6B45"/>
      <stop offset="1" stop-color="#D6336C"/>
    </linearGradient>
    <clipPath id="gvc"><rect x="2" y="2" width="60" height="60" rx="17"/></clipPath>
  </defs>
  <rect x="2" y="2" width="60" height="60" rx="17" fill="url(#gv)"/>
  <g clip-path="url(#gvc)"><circle cx="17" cy="9" r="32" fill="#fff" opacity=".13"/></g>
  <path d="M26.2 28.4c-1.9-2.3 1.5-4.1 1.5-6.9 0-1.9-1.1-3-1.8-3.7" stroke="#fff" stroke-width="3.4" stroke-linecap="round" fill="none" opacity=".92"/>
  <path d="M35.6 28.4c-1.9-2.3 1.5-4.1 1.5-6.9 0-1.9-1.1-3-1.8-3.7" stroke="#fff" stroke-width="3.4" stroke-linecap="round" fill="none" opacity=".6"/>
  <circle cx="46.8" cy="15.2" r="2.9" fill="#fff"/>
  <circle cx="46.8" cy="15.2" r="6" stroke="#fff" stroke-width="1.7" fill="none" opacity=".4"/>
  <path d="M14.6 33.5h34.8a2 2 0 0 1 2 2.2c-1 8.9-9.2 15.8-19.4 15.8s-18.4-6.9-19.4-15.8a2 2 0 0 1 2-2.2z" fill="#fff"/>
  <path d="M26 51.4h12v1a2.8 2.8 0 0 1-2.8 2.8h-6.4A2.8 2.8 0 0 1 26 52.4z" fill="#fff" opacity=".8"/>
</svg>
